<svg width="45" height="45" viewBox="0 0 45 45" fill="none" xmlns="http://www.w3.org/2000/svg">
<path d="M33.8329 22.5613C33.8329 16.711 29.4791 11.8965 23.8135 11.1687C23.7577 11.1687 23.674 11.1407 23.6181 11.1407C23.5623 11.1407 23.5065 11.1407 23.4786 11.1127C23.4228 11.1127 23.367 11.1127 23.3391 11.1127C23.3111 11.1127 23.2553 11.1127 23.2274 11.1127C23.1716 11.1127 23.0879 11.1127 23.032 11.1127C23.0041 11.1127 22.9483 11.1127 22.9204 11.1127H22.8925C22.8367 11.1127 22.7809 11.1127 22.725 11.1127C22.6413 11.1127 22.5297 11.1127 22.446 11.1127C22.446 11.1127 22.446 11.1127 22.418 11.1127V12.5123V22.5613H15.0779V22.5893C15.0779 23.597 15.2733 24.5487 15.664 25.4164H19.5713V30.6509C16.2501 29.4752 13.8499 26.2842 13.8499 22.5333C13.8499 18.1946 17.0316 14.6116 21.19 14.0238V11.1407V11.1127C15.4408 11.7285 10.9474 16.6271 10.9474 22.5333C10.9474 28.3836 15.3012 33.1981 20.9668 33.9259C21.0226 33.9259 21.1063 33.9539 21.1621 33.9539C21.218 33.9539 21.2738 33.9539 21.3017 33.9819C21.3575 33.9819 21.4133 33.9819 21.4412 33.9819C21.4691 33.9819 21.525 33.9819 21.5529 33.9819C21.6087 33.9819 21.6924 33.9819 21.7482 33.9819C21.7761 33.9819 21.832 33.9819 21.8599 33.9819H21.8878C21.9436 33.9819 21.9994 33.9819 22.0552 33.9819C22.1669 33.9819 22.2506 33.9819 22.3622 33.9819V22.5053H29.7023V22.4773C29.7023 21.4696 29.507 20.5179 29.1163 19.6502H25.209V14.4437C28.5302 15.6193 30.9303 18.8104 30.9303 22.5613C30.9303 26.9 27.7208 30.4829 23.5902 31.0708V33.8419V33.9539V33.9819C29.3674 33.3381 33.8329 28.4675 33.8329 22.5613ZM15.357 2.15536L16.0827 3.91883L17.1711 6.57804L18.2596 9.23725C20.9668 8.3975 23.8693 8.3975 26.5486 9.23725L27.6371 6.57804L28.7255 3.91883L29.814 1.25963C25.0136 -0.419875 19.7388 -0.419875 14.9384 1.25963L15.2733 2.07138L15.357 2.15536ZM31.042 11.5886C31.4327 11.8965 31.8234 12.2604 32.2142 12.6242C32.577 12.9881 32.9398 13.38 33.2468 13.7999C33.805 14.4997 34.2794 15.2555 34.6981 16.0112L37.3495 14.9196L40.0008 13.8279L42.6522 12.7362C41.5917 10.4969 40.1404 8.42549 38.2984 6.57804C36.4564 4.73059 34.3632 3.27503 32.1583 2.21134L31.0699 4.87055L29.9814 7.52976L28.893 10.189C29.5907 10.5529 30.3443 11.0287 31.042 11.5886ZM7.48664 14.9476L10.138 16.0392C10.7799 14.8076 11.5893 13.6599 12.6219 12.6522C13.6546 11.6165 14.7988 10.8048 15.9989 10.161L14.9105 7.50177L13.822 4.84256L12.7336 2.21134C11.2265 2.93913 9.8031 3.83486 8.46346 4.89854C7.82155 5.43038 7.17964 5.99022 6.56563 6.57804C5.95163 7.19386 5.39345 7.80968 4.89108 8.45348C3.83053 9.79708 2.93744 11.2247 2.2118 12.7362L4.86317 13.8279L7.48664 14.9476ZM6.56563 27.7118L9.21701 26.6201C8.93791 25.7803 8.77046 24.9126 8.65882 24.0169C8.54719 22.9812 8.54719 21.9175 8.65882 20.8818C8.77046 20.014 8.93791 19.1463 9.21701 18.2786L6.56563 17.2149L3.91426 16.1232L1.26289 15.0315C0.704707 16.6271 0.341887 18.2786 0.146523 19.9581C-0.0488411 21.6376 -0.0488411 23.3451 0.146523 25.0246C0.341887 26.7041 0.704707 28.3556 1.26289 29.9511L3.91426 28.8594L6.56563 27.7118ZM37.3495 29.9791L34.6981 28.8874C34.3074 29.6712 33.805 30.399 33.2468 31.0987C32.9398 31.4906 32.577 31.8825 32.2142 32.2744C31.8513 32.6383 31.4606 33.0022 31.042 33.3101C30.3443 33.8699 29.5907 34.3458 28.8092 34.7657L29.8977 37.4249L30.9862 40.0841L32.0746 42.7433C33.5817 42.0155 35.0051 41.1198 36.3447 40.0561C36.9866 39.5242 37.6285 38.9644 38.2146 38.3766C38.8286 37.7608 39.3868 37.1449 39.8892 36.4731C40.9497 35.1295 41.8428 33.702 42.5685 32.1904L39.9171 31.0987L37.3495 29.9791ZM44.6896 19.9301C44.4942 18.2506 44.1314 16.5991 43.5732 15.0035L40.9218 16.0952L38.2705 17.1869L35.6191 18.2786C35.8982 19.1183 36.0656 19.986 36.1773 20.8818C36.2889 21.9175 36.2889 22.9812 36.1773 24.0169C36.0656 24.8846 35.8982 25.7523 35.6191 26.6201L38.2705 27.7118L40.9218 28.8034L43.5732 29.8951C44.1314 28.2996 44.4942 26.6481 44.6896 24.9686C44.857 23.3171 44.857 21.6096 44.6896 19.9301ZM27.665 38.3766L26.5765 35.7174C25.7392 35.9973 24.8741 36.1652 23.981 36.2772C22.9483 36.3892 21.8878 36.3892 20.8551 36.2772C19.9899 36.1652 19.0969 35.9973 18.2596 35.7174L17.1711 38.3766L16.0827 41.0358L14.9942 43.695C16.585 44.2548 18.2317 44.6187 19.9062 44.8147C21.5808 45.0106 23.2832 45.0106 24.9578 44.8147C26.6323 44.6187 28.279 44.2548 29.8698 43.695L28.7813 41.0358L27.665 38.3766ZM14.9105 37.4249L15.9989 34.7657C15.2175 34.3738 14.4918 33.8699 13.7941 33.3101C13.4034 33.0022 13.0127 32.6383 12.6219 32.2744C12.2591 31.9105 11.8963 31.5186 11.5893 31.0987C11.0311 30.399 10.5566 29.6432 10.138 28.8594L7.48664 29.9511L4.83526 31.0428L2.18389 32.1344C2.90953 33.646 3.80263 35.0736 4.86317 36.4172C5.39345 37.061 5.95163 37.7048 6.53772 38.2926C7.12382 38.8804 7.76573 39.4682 8.43555 39.9721C9.77519 41.0358 11.1986 41.9315 12.7057 42.6593L13.7941 40.0001L14.9105 37.4249Z" fill="#F6EDD5"/>
</svg>
